<?xml version="1.0" encoding="UTF-8"?>
<svg id="Layer_1" data-name="Layer 1" xmlns="http://www.w3.org/2000/svg" viewBox="0 0 167 167">
  <path d="M83.58,165.53l-17.19-34.71c-13.42-3.63-25.52-11.54-34.27-22.44-9.33-11.63-14.45-26.24-14.4-41.14C17.72,30.98,47.23,1.47,83.5,1.47s65.78,29.51,65.78,65.78c0,29.82-19.8,55.63-48.4,63.47l-17.3,34.81Zm-.08-155.26c-31.42,0-56.98,25.56-56.98,56.98-.08,26.57,17.98,49.39,43.93,55.52l2.01,.47,11.14,22.49,11.22-22.57,1.99-.48c25.72-6.2,43.68-28.99,43.68-55.44,0-31.42-25.56-56.98-56.99-56.98Z"/>
  <path d="M131.35,73.28c0-5.4-4.4-9.8-9.8-9.8h-1.9l-.11-.13-10.45-13.07c-1.88-2.34-4.66-3.67-7.65-3.67h-7.19v-13.44c0-3.54-2.89-6.43-6.43-6.43h-3.37c-1.69,0-3.06,1.37-3.06,3.06s1.37,3.06,3.06,3.06h3.69v3.64H54.13c-.12,0-.23,0-.35,.02h-9.98c-1.69,0-3.06,1.37-3.06,3.06v47.24c0,1.69,1.37,3.06,3.06,3.06h10.3c.18,0,.36-.02,.53-.05h3.38l-.04,.36c-.08,.63-.13,1.14-.13,1.64,0,6.34,5.14,11.49,11.49,11.49s11.49-5.14,11.49-11.49c0-.48-.04-1.01-.13-1.64l-.04-.36h17.85l-.04,.36c-.08,.63-.13,1.14-.13,1.64,0,6.34,5.14,11.49,11.49,11.49s11.49-5.14,11.49-11.49c0-.48-.04-1.01-.13-1.64l-.04-.36h7.25c1.69,0,3.06-1.37,3.06-3.06v-13.49h-.08Zm-62.04,23.92c-2.97,0-5.37-2.4-5.37-5.37s2.4-5.37,5.37-5.37,5.37,2.4,5.37,5.37-2.42,5.37-5.37,5.37Zm18.86-13.49h-10.75l-.08-.08c-2.17-2.11-5.02-3.29-8.03-3.29s-5.86,1.16-8.03,3.29l-.08,.08h-7.06c-.18,0-.36,.02-.53,.05h-6.74V42.64h37.2c.12,0,.23,0,.35-.02h3.76v41.1Zm6.07-30.98h7.21c1.12,0,2.17,.51,2.87,1.39l7.48,9.36h-17.56v-10.75Zm15.53,44.47c-2.97,0-5.37-2.4-5.37-5.37s2.4-5.37,5.37-5.37,5.37,2.4,5.37,5.37-2.42,5.37-5.37,5.37Zm15.47-13.49h-7.38l-.08-.08c-2.17-2.11-5.02-3.29-8.03-3.29s-5.86,1.16-8.03,3.29l-.08,.08h-7.38v-14.12h27.29c2.02,0,3.69,1.66,3.69,3.69v10.43Z"/>
</svg>